<svg width="250" height="250" viewBox="-125 -125 250 250" role="img" aria-label="Avatar bloub animé" xmlns="http://www.w3.org/2000/svg"><defs><mask id="bot-mask-i34dyl" maskUnits="userSpaceOnUse" x="-158" y="-158" width="316" height="316"><path d="M104.19 0.33C104.19 3.68 103.33 7.16 102.14 10.37C100.96 13.58 98.75 16.63 97.08 19.6C95.41 22.58 93.73 25.41 92.11 28.21C90.49 31.02 88.92 33.73 87.36 36.44C85.8 39.14 84.27 41.79 82.74 44.45C81.2 47.11 79.68 49.74 78.14 52.41C76.6 55.09 75.06 57.75 73.48 60.48C71.9 63.21 70.32 65.96 68.67 68.81C67.02 71.67 65.45 74.7 63.6 77.6C61.75 80.5 59.99 83.83 57.57 86.21C55.16 88.59 52.23 90.6 49.12 91.88C46.02 93.16 42.36 93.55 38.94 93.88C35.51 94.21 31.92 93.88 28.57 93.88C25.21 93.88 21.99 93.88 18.8 93.88C15.6 93.88 12.5 93.88 9.4 93.88C6.3 93.88 3.26 93.88 0.19 93.88C-2.88 93.88 -5.93 93.88 -9.03 93.88C-12.13 93.88 -15.23 93.88 -18.42 93.88C-21.61 93.88 -24.83 93.88 -28.19 93.88C-31.55 93.88 -35.14 94.21 -38.56 93.88C-41.99 93.55 -45.64 93.16 -48.75 91.88C-51.85 90.6 -54.79 88.59 -57.2 86.21C-59.61 83.83 -61.37 80.5 -63.22 77.6C-65.07 74.7 -66.65 71.67 -68.3 68.81C-69.94 65.96 -71.53 63.21 -73.11 60.48C-74.68 57.75 -76.22 55.09 -77.76 52.41C-79.31 49.74 -80.82 47.11 -82.36 44.45C-83.9 41.79 -85.42 39.14 -86.99 36.44C-88.55 33.73 -90.12 31.02 -91.74 28.21C-93.36 25.41 -95.03 22.58 -96.71 19.6C-98.38 16.63 -100.59 13.58 -101.77 10.37C-102.95 7.16 -103.81 3.68 -103.81 0.33C-103.81 -3.02 -102.95 -6.5 -101.77 -9.71C-100.59 -12.93 -98.38 -15.97 -96.71 -18.94C-95.03 -21.92 -93.36 -24.75 -91.74 -27.56C-90.12 -30.36 -88.55 -33.07 -86.99 -35.78C-85.42 -38.49 -83.9 -41.13 -82.36 -43.79C-80.82 -46.46 -79.31 -49.08 -77.76 -51.76C-76.22 -54.43 -74.68 -57.09 -73.11 -59.82C-71.53 -62.55 -69.94 -65.3 -68.3 -68.15C-66.65 -71.01 -65.07 -74.04 -63.22 -76.94C-61.37 -79.84 -59.61 -83.17 -57.2 -85.55C-54.79 -87.93 -51.85 -89.94 -48.75 -91.22C-45.64 -92.5 -41.99 -92.89 -38.56 -93.22C-35.14 -93.55 -31.55 -93.22 -28.19 -93.22C-24.83 -93.22 -21.61 -93.22 -18.42 -93.22C-15.23 -93.22 -12.13 -93.22 -9.03 -93.22C-5.93 -93.22 -2.88 -93.22 0.19 -93.22C3.26 -93.22 6.3 -93.22 9.4 -93.22C12.5 -93.22 15.6 -93.22 18.8 -93.22C21.99 -93.22 25.21 -93.22 28.57 -93.22C31.92 -93.22 35.51 -93.55 38.94 -93.22C42.36 -92.89 46.02 -92.5 49.12 -91.22C52.23 -89.94 55.16 -87.93 57.57 -85.55C59.99 -83.17 61.75 -79.84 63.6 -76.94C65.45 -74.04 67.02 -71.01 68.67 -68.15C70.32 -65.3 71.9 -62.55 73.48 -59.82C75.06 -57.09 76.6 -54.43 78.14 -51.76C79.68 -49.08 81.2 -46.46 82.74 -43.79C84.27 -41.13 85.8 -38.49 87.36 -35.78C88.92 -33.07 90.49 -30.36 92.11 -27.56C93.73 -24.75 95.41 -21.92 97.08 -18.94C98.75 -15.97 100.96 -12.93 102.14 -9.71C103.33 -6.5 104.19 -3.02 104.19 0.33Z" fill="#fff"/><path d="M-20 -8A20 20 0 0 1 0 -28L0 -28A20 20 0 0 1 20 -8L20 8A20 20 0 0 1 0 28L0 28A20 20 0 0 1 -20 8Z" class="oeil0" opacity="1" fill="#000"/><path d="M-20 -8A20 20 0 0 1 0 -28L0 -28A20 20 0 0 1 20 -8L20 8A20 20 0 0 1 0 28L0 28A20 20 0 0 1 -20 8Z" class="oeil1" opacity="1" fill="#000"/></mask></defs><g fill="none" stroke-linecap="round"></g><g opacity="1"><path d="M104.19 0.33C104.19 3.68 103.33 7.16 102.14 10.37C100.96 13.58 98.75 16.63 97.08 19.6C95.41 22.58 93.73 25.41 92.11 28.21C90.49 31.02 88.92 33.73 87.36 36.44C85.8 39.14 84.27 41.79 82.74 44.45C81.2 47.11 79.68 49.74 78.14 52.41C76.6 55.09 75.06 57.75 73.48 60.48C71.9 63.21 70.32 65.96 68.67 68.81C67.02 71.67 65.45 74.7 63.6 77.6C61.75 80.5 59.99 83.83 57.57 86.21C55.16 88.59 52.23 90.6 49.12 91.88C46.02 93.16 42.36 93.55 38.94 93.88C35.51 94.21 31.92 93.88 28.57 93.88C25.21 93.88 21.99 93.88 18.8 93.88C15.6 93.88 12.5 93.88 9.4 93.88C6.3 93.88 3.26 93.88 0.19 93.88C-2.88 93.88 -5.93 93.88 -9.03 93.88C-12.13 93.88 -15.23 93.88 -18.42 93.88C-21.61 93.88 -24.83 93.88 -28.19 93.88C-31.55 93.88 -35.14 94.21 -38.56 93.88C-41.99 93.55 -45.64 93.16 -48.75 91.88C-51.85 90.6 -54.79 88.59 -57.2 86.21C-59.61 83.83 -61.37 80.5 -63.22 77.6C-65.07 74.7 -66.65 71.67 -68.3 68.81C-69.94 65.96 -71.53 63.21 -73.11 60.48C-74.68 57.75 -76.22 55.09 -77.76 52.41C-79.31 49.74 -80.82 47.11 -82.36 44.45C-83.9 41.79 -85.42 39.14 -86.99 36.44C-88.55 33.73 -90.12 31.02 -91.74 28.21C-93.36 25.41 -95.03 22.58 -96.71 19.6C-98.38 16.63 -100.59 13.58 -101.77 10.37C-102.95 7.16 -103.81 3.68 -103.81 0.33C-103.81 -3.02 -102.95 -6.5 -101.77 -9.71C-100.59 -12.93 -98.38 -15.97 -96.71 -18.94C-95.03 -21.92 -93.36 -24.75 -91.74 -27.56C-90.12 -30.36 -88.55 -33.07 -86.99 -35.78C-85.42 -38.49 -83.9 -41.13 -82.36 -43.79C-80.82 -46.46 -79.31 -49.08 -77.76 -51.76C-76.22 -54.43 -74.68 -57.09 -73.11 -59.82C-71.53 -62.55 -69.94 -65.3 -68.3 -68.15C-66.65 -71.01 -65.07 -74.04 -63.22 -76.94C-61.37 -79.84 -59.61 -83.17 -57.2 -85.55C-54.79 -87.93 -51.85 -89.94 -48.75 -91.22C-45.64 -92.5 -41.99 -92.89 -38.56 -93.22C-35.14 -93.55 -31.55 -93.22 -28.19 -93.22C-24.83 -93.22 -21.61 -93.22 -18.42 -93.22C-15.23 -93.22 -12.13 -93.22 -9.03 -93.22C-5.93 -93.22 -2.88 -93.22 0.19 -93.22C3.26 -93.22 6.3 -93.22 9.4 -93.22C12.5 -93.22 15.6 -93.22 18.8 -93.22C21.99 -93.22 25.21 -93.22 28.57 -93.22C31.92 -93.22 35.51 -93.55 38.94 -93.22C42.36 -92.89 46.02 -92.5 49.12 -91.22C52.23 -89.94 55.16 -87.93 57.57 -85.55C59.99 -83.17 61.75 -79.84 63.6 -76.94C65.45 -74.04 67.02 -71.01 68.67 -68.15C70.32 -65.3 71.9 -62.55 73.48 -59.82C75.06 -57.09 76.6 -54.43 78.14 -51.76C79.68 -49.08 81.2 -46.46 82.74 -43.79C84.27 -41.13 85.8 -38.49 87.36 -35.78C88.92 -33.07 90.49 -30.36 92.11 -27.56C93.73 -24.75 95.41 -21.92 97.08 -18.94C98.75 -15.97 100.96 -12.93 102.14 -9.71C103.33 -6.5 104.19 -3.02 104.19 0.33Z" fill="#f9f9f9"/><g mask="url(#bot-mask-i34dyl)"><rect x="-158" y="-158" width="316" height="316" fill="#f08a24"/></g></g><g></g><g fill="none" stroke-linecap="round"></g><style>.oeil0,.oeil1{transform-box:view-box;transform-origin:0 0;animation-duration:2.967s;animation-iteration-count:infinite;animation-timing-function:linear;animation-direction:alternate}.oeil0{animation-name:oeil0}.oeil1{animation-name:oeil1}@keyframes oeil0{0%{transform:matrix(0.97,-0.1,0.14,0.98,-17.73,19.29)}1.124%{transform:matrix(0.97,-0.1,0.14,0.98,-17.76,19.35)}2.247%{transform:matrix(0.97,-0.1,0.14,0.98,-17.79,19.41)}3.371%{transform:matrix(0.97,-0.1,0.14,0.98,-17.83,19.46)}4.494%{transform:matrix(0.97,-0.1,0.14,0.98,-17.88,19.51)}5.618%{transform:matrix(0.97,-0.1,0.14,0.98,-17.93,19.55)}6.742%{transform:matrix(0.97,-0.1,0.14,0.98,-17.99,19.58)}7.865%{transform:matrix(0.97,-0.1,0.14,0.97,-18.05,19.6)}8.989%{transform:matrix(0.97,-0.1,0.14,0.97,-18.12,19.62)}10.112%{transform:matrix(0.97,-0.1,0.14,0.97,-18.19,19.63)}11.236%{transform:matrix(0.97,-0.1,0.14,0.97,-18.26,19.63)}12.36%{transform:matrix(0.97,-0.1,0.14,0.97,-18.34,19.63)}13.483%{transform:matrix(0.97,-0.1,0.14,0.97,-18.42,19.62)}14.607%{transform:matrix(0.97,-0.1,0.14,0.97,-18.5,19.61)}15.73%{transform:matrix(0.97,-0.1,0.14,0.97,-18.58,19.59)}16.854%{transform:matrix(0.97,-0.1,0.14,0.97,-18.66,19.58)}17.978%{transform:matrix(0.97,-0.1,0.14,0.97,-18.74,19.56)}19.101%{transform:matrix(0.97,-0.1,0.14,0.97,-18.82,19.54)}20.225%{transform:matrix(0.97,-0.1,0.14,0.97,-18.89,19.52)}21.348%{transform:matrix(0.97,-0.1,0.14,0.97,-18.96,19.5)}22.472%{transform:matrix(0.97,-0.1,0.14,0.97,-19.02,19.49)}23.596%{transform:matrix(0.97,-0.11,0.14,0.97,-19.09,19.48)}24.719%{transform:matrix(0.97,-0.11,0.15,0.97,-19.15,19.47)}25.843%{transform:matrix(0.97,-0.11,0.15,0.97,-19.2,19.47)}26.966%{transform:matrix(0.97,-0.11,0.15,0.97,-19.25,19.48)}28.09%{transform:matrix(0.97,-0.11,0.15,0.97,-19.3,19.49)}29.213%{transform:matrix(0.97,-0.11,0.15,0.97,-19.35,19.51)}30.337%{transform:matrix(0.97,-0.11,0.15,0.97,-19.4,19.53)}31.461%{transform:matrix(0.97,-0.11,0.15,0.97,-19.44,19.55)}32.584%{transform:matrix(0.97,-0.11,0.15,0.97,-19.48,19.59)}33.708%{transform:matrix(0.97,-0.11,0.15,0.97,-19.53,19.62)}34.831%{transform:matrix(0.97,-0.11,0.15,0.97,-19.58,19.66)}35.955%{transform:matrix(0.97,-0.11,0.15,0.97,-19.64,19.71)}37.079%{transform:matrix(0.97,-0.11,0.15,0.97,-19.69,19.76)}38.202%{transform:matrix(0.97,-0.11,0.15,0.97,-19.76,19.81)}39.326%{transform:matrix(0.97,-0.11,0.15,0.97,-19.83,19.86)}40.449%{transform:matrix(0.97,-0.1,0.15,0.97,-19.91,19.92)}41.573%{transform:matrix(0.97,-0.1,0.15,0.97,-20,19.98)}42.697%{transform:matrix(0.97,-0.1,0.15,0.97,-20.09,20.03)}43.82%{transform:matrix(0.97,-0.1,0.15,0.97,-20.2,20.09)}44.944%{transform:matrix(0.97,-0.1,0.15,0.97,-20.3,20.14)}46.067%{transform:matrix(0.97,-0.1,0.15,0.97,-20.42,20.2)}47.191%{transform:matrix(0.97,-0.1,0.15,0.97,-20.54,20.25)}48.315%{transform:matrix(0.97,-0.06,0.15,0.6,-20.67,20.3)}49.438%{transform:matrix(0.97,-0.02,0.15,0.22,-20.79,20.35)}50.562%{transform:matrix(0.96,-0.02,0.15,0.23,-20.92,20.39)}51.685%{transform:matrix(0.96,-0.06,0.15,0.54,-21.05,20.44)}52.809%{transform:matrix(0.96,-0.09,0.15,0.85,-21.17,20.48)}53.933%{transform:matrix(0.96,-0.1,0.15,0.97,-21.29,20.52)}55.056%{transform:matrix(0.96,-0.1,0.15,0.97,-21.4,20.56)}56.18%{transform:matrix(0.96,-0.1,0.15,0.97,-21.5,20.6)}57.303%{transform:matrix(0.96,-0.1,0.15,0.97,-21.59,20.64)}58.427%{transform:matrix(0.96,-0.1,0.15,0.97,-21.66,20.69)}59.551%{transform:matrix(0.96,-0.1,0.15,0.97,-21.72,20.73)}60.674%{transform:matrix(0.96,-0.1,0.15,0.97,-21.76,20.78)}61.798%{transform:matrix(0.96,-0.1,0.15,0.97,-21.78,20.83)}62.921%{transform:matrix(0.96,-0.1,0.15,0.97,-21.79,20.89)}64.045%{transform:matrix(0.96,-0.1,0.15,0.97,-21.77,20.95)}65.169%{transform:matrix(0.96,-0.1,0.15,0.97,-21.73,21.02)}66.292%{transform:matrix(0.96,-0.1,0.15,0.97,-21.67,21.1)}67.416%{transform:matrix(0.96,-0.1,0.15,0.97,-21.59,21.19)}68.539%{transform:matrix(0.96,-0.1,0.15,0.97,-21.49,21.28)}69.663%{transform:matrix(0.96,-0.1,0.15,0.97,-21.37,21.39)}70.787%{transform:matrix(0.96,-0.1,0.15,0.97,-21.24,21.51)}71.91%{transform:matrix(0.96,-0.1,0.15,0.97,-21.11,21.65)}73.034%{transform:matrix(0.97,-0.1,0.15,0.97,-20.96,21.81)}74.157%{transform:matrix(0.97,-0.1,0.15,0.97,-20.8,21.97)}75.281%{transform:matrix(0.97,-0.1,0.15,0.97,-20.64,22.14)}76.404%{transform:matrix(0.97,-0.1,0.15,0.97,-20.47,22.33)}77.528%{transform:matrix(0.97,-0.1,0.15,0.97,-20.29,22.52)}78.652%{transform:matrix(0.97,-0.1,0.15,0.97,-20.12,22.72)}79.775%{transform:matrix(0.97,-0.1,0.15,0.97,-19.95,22.92)}80.899%{transform:matrix(0.97,-0.1,0.14,0.97,-19.79,23.13)}82.022%{transform:matrix(0.97,-0.1,0.14,0.97,-19.64,23.34)}83.146%{transform:matrix(0.97,-0.1,0.14,0.97,-19.49,23.55)}84.27%{transform:matrix(0.97,-0.1,0.14,0.97,-19.36,23.76)}85.393%{transform:matrix(0.97,-0.1,0.14,0.97,-19.25,23.97)}86.517%{transform:matrix(0.97,-0.09,0.14,0.97,-19.15,24.17)}87.64%{transform:matrix(0.97,-0.09,0.14,0.97,-19.07,24.36)}88.764%{transform:matrix(0.97,-0.09,0.14,0.97,-19.01,24.54)}89.888%{transform:matrix(0.97,-0.09,0.14,0.97,-18.97,24.71)}91.011%{transform:matrix(0.97,-0.09,0.14,0.97,-18.95,24.86)}92.135%{transform:matrix(0.97,-0.09,0.14,0.96,-18.94,24.99)}93.258%{transform:matrix(0.97,-0.09,0.14,0.96,-18.96,25.11)}94.382%{transform:matrix(0.97,-0.09,0.14,0.96,-18.99,25.21)}95.506%{transform:matrix(0.97,-0.09,0.14,0.96,-19.04,25.28)}96.629%{transform:matrix(0.97,-0.09,0.14,0.96,-19.1,25.34)}97.753%{transform:matrix(0.97,-0.09,0.14,0.96,-19.17,25.37)}98.876%{transform:matrix(0.97,-0.09,0.14,0.96,-19.26,25.38)}100%{transform:matrix(0.97,-0.09,0.14,0.96,-19.35,25.37)}}@keyframes oeil1{0%{transform:matrix(0.86,0.1,-0.18,0.98,45.13,18.64)}1.124%{transform:matrix(0.86,0.1,-0.18,0.98,45.11,18.68)}2.247%{transform:matrix(0.86,0.1,-0.18,0.98,45.07,18.71)}3.371%{transform:matrix(0.86,0.1,-0.18,0.98,45.03,18.75)}4.494%{transform:matrix(0.86,0.1,-0.18,0.98,44.99,18.77)}5.618%{transform:matrix(0.86,0.1,-0.18,0.98,44.94,18.79)}6.742%{transform:matrix(0.86,0.1,-0.18,0.98,44.88,18.81)}7.865%{transform:matrix(0.86,0.1,-0.18,0.98,44.81,18.83)}8.989%{transform:matrix(0.86,0.1,-0.18,0.98,44.75,18.83)}10.112%{transform:matrix(0.86,0.1,-0.18,0.98,44.67,18.84)}11.236%{transform:matrix(0.86,0.1,-0.18,0.98,44.6,18.84)}12.36%{transform:matrix(0.86,0.1,-0.18,0.98,44.52,18.83)}13.483%{transform:matrix(0.86,0.1,-0.18,0.98,44.43,18.83)}14.607%{transform:matrix(0.86,0.1,-0.18,0.98,44.35,18.82)}15.73%{transform:matrix(0.87,0.1,-0.18,0.98,44.26,18.8)}16.854%{transform:matrix(0.87,0.1,-0.18,0.98,44.18,18.79)}17.978%{transform:matrix(0.87,0.1,-0.18,0.98,44.1,18.77)}19.101%{transform:matrix(0.87,0.1,-0.18,0.98,44.02,18.76)}20.225%{transform:matrix(0.87,0.1,-0.18,0.98,43.94,18.74)}21.348%{transform:matrix(0.87,0.1,-0.18,0.98,43.87,18.73)}22.472%{transform:matrix(0.87,0.1,-0.18,0.98,43.8,18.71)}23.596%{transform:matrix(0.87,0.1,-0.18,0.98,43.73,18.7)}24.719%{transform:matrix(0.87,0.1,-0.18,0.98,43.67,18.7)}25.843%{transform:matrix(0.87,0.1,-0.18,0.98,43.62,18.69)}26.966%{transform:matrix(0.87,0.1,-0.18,0.98,43.57,18.69)}28.09%{transform:matrix(0.87,0.1,-0.18,0.98,43.52,18.7)}29.213%{transform:matrix(0.87,0.1,-0.18,0.98,43.47,18.71)}30.337%{transform:matrix(0.87,0.1,-0.18,0.98,43.43,18.72)}31.461%{transform:matrix(0.87,0.1,-0.18,0.98,43.39,18.74)}32.584%{transform:matrix(0.87,0.1,-0.18,0.98,43.34,18.77)}33.708%{transform:matrix(0.87,0.1,-0.18,0.98,43.3,18.79)}34.831%{transform:matrix(0.87,0.1,-0.18,0.98,43.25,18.83)}35.955%{transform:matrix(0.87,0.1,-0.18,0.98,43.2,18.86)}37.079%{transform:matrix(0.87,0.09,-0.18,0.98,43.14,18.9)}38.202%{transform:matrix(0.87,0.09,-0.18,0.98,43.07,18.95)}39.326%{transform:matrix(0.87,0.09,-0.18,0.98,43,18.99)}40.449%{transform:matrix(0.87,0.09,-0.18,0.98,42.93,19.04)}41.573%{transform:matrix(0.87,0.09,-0.18,0.98,42.84,19.09)}42.697%{transform:matrix(0.87,0.09,-0.18,0.98,42.75,19.14)}43.82%{transform:matrix(0.87,0.09,-0.18,0.98,42.65,19.19)}44.944%{transform:matrix(0.87,0.09,-0.18,0.98,42.54,19.24)}46.067%{transform:matrix(0.88,0.09,-0.18,0.97,42.42,19.29)}47.191%{transform:matrix(0.88,0.09,-0.18,0.97,42.3,19.34)}48.315%{transform:matrix(0.88,0.06,-0.18,0.6,42.18,19.39)}49.438%{transform:matrix(0.88,0.02,-0.18,0.22,42.05,19.44)}50.562%{transform:matrix(0.88,0.02,-0.18,0.23,41.92,19.48)}51.685%{transform:matrix(0.88,0.05,-0.18,0.54,41.79,19.52)}52.809%{transform:matrix(0.88,0.08,-0.18,0.85,41.67,19.56)}53.933%{transform:matrix(0.88,0.09,-0.18,0.97,41.55,19.6)}55.056%{transform:matrix(0.88,0.09,-0.17,0.97,41.44,19.64)}56.18%{transform:matrix(0.88,0.09,-0.17,0.97,41.34,19.68)}57.303%{transform:matrix(0.88,0.09,-0.17,0.97,41.25,19.72)}58.427%{transform:matrix(0.88,0.09,-0.17,0.97,41.18,19.75)}59.551%{transform:matrix(0.88,0.09,-0.17,0.97,41.12,19.79)}60.674%{transform:matrix(0.88,0.09,-0.17,0.97,41.08,19.83)}61.798%{transform:matrix(0.88,0.09,-0.17,0.97,41.06,19.87)}62.921%{transform:matrix(0.88,0.09,-0.17,0.97,41.06,19.91)}64.045%{transform:matrix(0.88,0.09,-0.17,0.97,41.09,19.96)}65.169%{transform:matrix(0.88,0.09,-0.17,0.97,41.13,20.01)}66.292%{transform:matrix(0.88,0.09,-0.17,0.97,41.2,20.06)}67.416%{transform:matrix(0.88,0.09,-0.17,0.97,41.28,20.12)}68.539%{transform:matrix(0.88,0.09,-0.18,0.97,41.39,20.19)}69.663%{transform:matrix(0.88,0.09,-0.18,0.97,41.52,20.26)}70.787%{transform:matrix(0.88,0.09,-0.18,0.97,41.66,20.34)}71.91%{transform:matrix(0.88,0.09,-0.18,0.97,41.82,20.42)}73.034%{transform:matrix(0.88,0.08,-0.18,0.97,41.99,20.51)}74.157%{transform:matrix(0.88,0.08,-0.18,0.97,42.18,20.61)}75.281%{transform:matrix(0.87,0.08,-0.18,0.97,42.37,20.71)}76.404%{transform:matrix(0.87,0.08,-0.18,0.97,42.56,20.82)}77.528%{transform:matrix(0.87,0.08,-0.18,0.97,42.76,20.94)}78.652%{transform:matrix(0.87,0.08,-0.18,0.97,42.95,21.06)}79.775%{transform:matrix(0.87,0.08,-0.18,0.97,43.14,21.18)}80.899%{transform:matrix(0.87,0.08,-0.18,0.97,43.32,21.31)}82.022%{transform:matrix(0.87,0.08,-0.18,0.97,43.5,21.44)}83.146%{transform:matrix(0.87,0.08,-0.18,0.97,43.66,21.57)}84.27%{transform:matrix(0.87,0.08,-0.18,0.97,43.8,21.69)}85.393%{transform:matrix(0.86,0.08,-0.18,0.97,43.93,21.82)}86.517%{transform:matrix(0.86,0.08,-0.18,0.97,44.04,21.94)}87.64%{transform:matrix(0.86,0.08,-0.18,0.97,44.14,22.06)}88.764%{transform:matrix(0.86,0.08,-0.18,0.97,44.21,22.17)}89.888%{transform:matrix(0.86,0.07,-0.18,0.97,44.26,22.28)}91.011%{transform:matrix(0.86,0.07,-0.18,0.97,44.29,22.37)}92.135%{transform:matrix(0.86,0.07,-0.18,0.97,44.31,22.45)}93.258%{transform:matrix(0.86,0.07,-0.18,0.97,44.3,22.53)}94.382%{transform:matrix(0.86,0.07,-0.18,0.97,44.28,22.59)}95.506%{transform:matrix(0.86,0.07,-0.18,0.97,44.24,22.63)}96.629%{transform:matrix(0.86,0.07,-0.18,0.97,44.18,22.66)}97.753%{transform:matrix(0.86,0.07,-0.18,0.97,44.11,22.68)}98.876%{transform:matrix(0.86,0.07,-0.18,0.97,44.03,22.68)}100%{transform:matrix(0.86,0.07,-0.18,0.97,43.94,22.66)}}</style></svg>