<svg width="250" height="250" viewBox="-125 -125 250 250" role="img" aria-label="Avatar bloub animé" xmlns="http://www.w3.org/2000/svg"><defs><mask id="bot-mask-fzk1nc" maskUnits="userSpaceOnUse" x="-158" y="-158" width="316" height="316"><path d="M104.19 0.33C104.19 3.68 103.33 7.16 102.14 10.37C100.96 13.58 98.75 16.63 97.08 19.6C95.41 22.58 93.73 25.41 92.11 28.21C90.49 31.02 88.92 33.73 87.36 36.44C85.8 39.14 84.27 41.79 82.74 44.45C81.2 47.11 79.68 49.74 78.14 52.41C76.6 55.09 75.06 57.75 73.48 60.48C71.9 63.21 70.32 65.96 68.67 68.81C67.02 71.67 65.45 74.7 63.6 77.6C61.75 80.5 59.99 83.83 57.57 86.21C55.16 88.59 52.23 90.6 49.12 91.88C46.02 93.16 42.36 93.55 38.94 93.88C35.51 94.21 31.92 93.88 28.57 93.88C25.21 93.88 21.99 93.88 18.8 93.88C15.6 93.88 12.5 93.88 9.4 93.88C6.3 93.88 3.26 93.88 0.19 93.88C-2.88 93.88 -5.93 93.88 -9.03 93.88C-12.13 93.88 -15.23 93.88 -18.42 93.88C-21.61 93.88 -24.83 93.88 -28.19 93.88C-31.55 93.88 -35.14 94.21 -38.56 93.88C-41.99 93.55 -45.64 93.16 -48.75 91.88C-51.85 90.6 -54.79 88.59 -57.2 86.21C-59.61 83.83 -61.37 80.5 -63.22 77.6C-65.07 74.7 -66.65 71.67 -68.3 68.81C-69.94 65.96 -71.53 63.21 -73.11 60.48C-74.68 57.75 -76.22 55.09 -77.76 52.41C-79.31 49.74 -80.82 47.11 -82.36 44.45C-83.9 41.79 -85.42 39.14 -86.99 36.44C-88.55 33.73 -90.12 31.02 -91.74 28.21C-93.36 25.41 -95.03 22.58 -96.71 19.6C-98.38 16.63 -100.59 13.58 -101.77 10.37C-102.95 7.16 -103.81 3.68 -103.81 0.33C-103.81 -3.02 -102.95 -6.5 -101.77 -9.71C-100.59 -12.93 -98.38 -15.97 -96.71 -18.94C-95.03 -21.92 -93.36 -24.75 -91.74 -27.56C-90.12 -30.36 -88.55 -33.07 -86.99 -35.78C-85.42 -38.49 -83.9 -41.13 -82.36 -43.79C-80.82 -46.46 -79.31 -49.08 -77.76 -51.76C-76.22 -54.43 -74.68 -57.09 -73.11 -59.82C-71.53 -62.55 -69.94 -65.3 -68.3 -68.15C-66.65 -71.01 -65.07 -74.04 -63.22 -76.94C-61.37 -79.84 -59.61 -83.17 -57.2 -85.55C-54.79 -87.93 -51.85 -89.94 -48.75 -91.22C-45.64 -92.5 -41.99 -92.89 -38.56 -93.22C-35.14 -93.55 -31.55 -93.22 -28.19 -93.22C-24.83 -93.22 -21.61 -93.22 -18.42 -93.22C-15.23 -93.22 -12.13 -93.22 -9.03 -93.22C-5.93 -93.22 -2.88 -93.22 0.19 -93.22C3.26 -93.22 6.3 -93.22 9.4 -93.22C12.5 -93.22 15.6 -93.22 18.8 -93.22C21.99 -93.22 25.21 -93.22 28.57 -93.22C31.92 -93.22 35.51 -93.55 38.94 -93.22C42.36 -92.89 46.02 -92.5 49.12 -91.22C52.23 -89.94 55.16 -87.93 57.57 -85.55C59.99 -83.17 61.75 -79.84 63.6 -76.94C65.45 -74.04 67.02 -71.01 68.67 -68.15C70.32 -65.3 71.9 -62.55 73.48 -59.82C75.06 -57.09 76.6 -54.43 78.14 -51.76C79.68 -49.08 81.2 -46.46 82.74 -43.79C84.27 -41.13 85.8 -38.49 87.36 -35.78C88.92 -33.07 90.49 -30.36 92.11 -27.56C93.73 -24.75 95.41 -21.92 97.08 -18.94C98.75 -15.97 100.96 -12.93 102.14 -9.71C103.33 -6.5 104.19 -3.02 104.19 0.33Z" fill="#fff"/><path d="M-8.5 -6.5A8.5 8.5 0 0 1 0 -15L0 -15A8.5 8.5 0 0 1 8.5 -6.5L8.5 6.5A8.5 8.5 0 0 1 0 15L0 15A8.5 8.5 0 0 1 -8.5 6.5Z" class="oeil0" opacity="1" fill="#000"/><path d="M-8.5 -6.5A8.5 8.5 0 0 1 0 -15L0 -15A8.5 8.5 0 0 1 8.5 -6.5L8.5 6.5A8.5 8.5 0 0 1 0 15L0 15A8.5 8.5 0 0 1 -8.5 6.5Z" class="oeil1" opacity="1" fill="#000"/></mask></defs><g fill="none" stroke-linecap="round"></g><g opacity="1"><path d="M104.19 0.33C104.19 3.68 103.33 7.16 102.14 10.37C100.96 13.58 98.75 16.63 97.08 19.6C95.41 22.58 93.73 25.41 92.11 28.21C90.49 31.02 88.92 33.73 87.36 36.44C85.8 39.14 84.27 41.79 82.74 44.45C81.2 47.11 79.68 49.74 78.14 52.41C76.6 55.09 75.06 57.75 73.48 60.48C71.9 63.21 70.32 65.96 68.67 68.81C67.02 71.67 65.45 74.7 63.6 77.6C61.75 80.5 59.99 83.83 57.57 86.21C55.16 88.59 52.23 90.6 49.12 91.88C46.02 93.16 42.36 93.55 38.94 93.88C35.51 94.21 31.92 93.88 28.57 93.88C25.21 93.88 21.99 93.88 18.8 93.88C15.6 93.88 12.5 93.88 9.4 93.88C6.3 93.88 3.26 93.88 0.19 93.88C-2.88 93.88 -5.93 93.88 -9.03 93.88C-12.13 93.88 -15.23 93.88 -18.42 93.88C-21.61 93.88 -24.83 93.88 -28.19 93.88C-31.55 93.88 -35.14 94.21 -38.56 93.88C-41.99 93.55 -45.64 93.16 -48.75 91.88C-51.85 90.6 -54.79 88.59 -57.2 86.21C-59.61 83.83 -61.37 80.5 -63.22 77.6C-65.07 74.7 -66.65 71.67 -68.3 68.81C-69.94 65.96 -71.53 63.21 -73.11 60.48C-74.68 57.75 -76.22 55.09 -77.76 52.41C-79.31 49.74 -80.82 47.11 -82.36 44.45C-83.9 41.79 -85.42 39.14 -86.99 36.44C-88.55 33.73 -90.12 31.02 -91.74 28.21C-93.36 25.41 -95.03 22.58 -96.71 19.6C-98.38 16.63 -100.59 13.58 -101.77 10.37C-102.95 7.16 -103.81 3.68 -103.81 0.33C-103.81 -3.02 -102.95 -6.5 -101.77 -9.71C-100.59 -12.93 -98.38 -15.97 -96.71 -18.94C-95.03 -21.92 -93.36 -24.75 -91.74 -27.56C-90.12 -30.36 -88.55 -33.07 -86.99 -35.78C-85.42 -38.49 -83.9 -41.13 -82.36 -43.79C-80.82 -46.46 -79.31 -49.08 -77.76 -51.76C-76.22 -54.43 -74.68 -57.09 -73.11 -59.82C-71.53 -62.55 -69.94 -65.3 -68.3 -68.15C-66.65 -71.01 -65.07 -74.04 -63.22 -76.94C-61.37 -79.84 -59.61 -83.17 -57.2 -85.55C-54.79 -87.93 -51.85 -89.94 -48.75 -91.22C-45.64 -92.5 -41.99 -92.89 -38.56 -93.22C-35.14 -93.55 -31.55 -93.22 -28.19 -93.22C-24.83 -93.22 -21.61 -93.22 -18.42 -93.22C-15.23 -93.22 -12.13 -93.22 -9.03 -93.22C-5.93 -93.22 -2.88 -93.22 0.19 -93.22C3.26 -93.22 6.3 -93.22 9.4 -93.22C12.5 -93.22 15.6 -93.22 18.8 -93.22C21.99 -93.22 25.21 -93.22 28.57 -93.22C31.92 -93.22 35.51 -93.55 38.94 -93.22C42.36 -92.89 46.02 -92.5 49.12 -91.22C52.23 -89.94 55.16 -87.93 57.57 -85.55C59.99 -83.17 61.75 -79.84 63.6 -76.94C65.45 -74.04 67.02 -71.01 68.67 -68.15C70.32 -65.3 71.9 -62.55 73.48 -59.82C75.06 -57.09 76.6 -54.43 78.14 -51.76C79.68 -49.08 81.2 -46.46 82.74 -43.79C84.27 -41.13 85.8 -38.49 87.36 -35.78C88.92 -33.07 90.49 -30.36 92.11 -27.56C93.73 -24.75 95.41 -21.92 97.08 -18.94C98.75 -15.97 100.96 -12.93 102.14 -9.71C103.33 -6.5 104.19 -3.02 104.19 0.33Z" fill="#f9f9f9"/><g mask="url(#bot-mask-fzk1nc)"><rect x="-158" y="-158" width="316" height="316" fill="#f08a24"/></g></g><g></g><g fill="none" stroke-linecap="round"></g><style>.oeil0,.oeil1{transform-box:view-box;transform-origin:0 0;animation-duration:2.967s;animation-iteration-count:infinite;animation-timing-function:linear;animation-direction:alternate}.oeil0{animation-name:oeil0}.oeil1{animation-name:oeil1}@keyframes oeil0{0%{transform:matrix(0.85,-0.07,0.17,0.97,-44.1,20.83)}1.124%{transform:matrix(0.85,-0.07,0.17,0.97,-44.11,20.89)}2.247%{transform:matrix(0.85,-0.07,0.17,0.97,-44.13,20.94)}3.371%{transform:matrix(0.85,-0.07,0.17,0.97,-44.15,20.98)}4.494%{transform:matrix(0.85,-0.07,0.17,0.97,-44.18,21.03)}5.618%{transform:matrix(0.85,-0.07,0.18,0.97,-44.22,21.06)}6.742%{transform:matrix(0.85,-0.07,0.18,0.97,-44.27,21.1)}7.865%{transform:matrix(0.85,-0.07,0.18,0.97,-44.32,21.12)}8.989%{transform:matrix(0.85,-0.07,0.18,0.97,-44.38,21.14)}10.112%{transform:matrix(0.85,-0.07,0.18,0.97,-44.44,21.16)}11.236%{transform:matrix(0.85,-0.07,0.18,0.97,-44.52,21.17)}12.36%{transform:matrix(0.85,-0.07,0.18,0.97,-44.59,21.18)}13.483%{transform:matrix(0.85,-0.07,0.18,0.97,-44.67,21.19)}14.607%{transform:matrix(0.85,-0.07,0.18,0.97,-44.75,21.19)}15.73%{transform:matrix(0.85,-0.07,0.18,0.97,-44.83,21.19)}16.854%{transform:matrix(0.85,-0.07,0.18,0.97,-44.92,21.18)}17.978%{transform:matrix(0.85,-0.07,0.18,0.97,-45,21.18)}19.101%{transform:matrix(0.85,-0.07,0.18,0.97,-45.08,21.17)}20.225%{transform:matrix(0.85,-0.07,0.18,0.97,-45.15,21.17)}21.348%{transform:matrix(0.85,-0.07,0.18,0.97,-45.22,21.16)}22.472%{transform:matrix(0.85,-0.07,0.18,0.97,-45.29,21.16)}23.596%{transform:matrix(0.85,-0.07,0.18,0.97,-45.35,21.16)}24.719%{transform:matrix(0.85,-0.07,0.18,0.97,-45.41,21.16)}25.843%{transform:matrix(0.85,-0.07,0.18,0.97,-45.46,21.17)}26.966%{transform:matrix(0.84,-0.07,0.18,0.97,-45.51,21.18)}28.09%{transform:matrix(0.84,-0.07,0.18,0.97,-45.56,21.19)}29.213%{transform:matrix(0.84,-0.07,0.18,0.97,-45.6,21.21)}30.337%{transform:matrix(0.84,-0.07,0.18,0.97,-45.63,21.23)}31.461%{transform:matrix(0.84,-0.07,0.18,0.97,-45.67,21.26)}32.584%{transform:matrix(0.84,-0.07,0.18,0.97,-45.71,21.29)}33.708%{transform:matrix(0.84,-0.07,0.18,0.97,-45.74,21.32)}34.831%{transform:matrix(0.84,-0.07,0.18,0.97,-45.78,21.36)}35.955%{transform:matrix(0.84,-0.07,0.18,0.97,-45.82,21.41)}37.079%{transform:matrix(0.84,-0.07,0.18,0.97,-45.86,21.45)}38.202%{transform:matrix(0.84,-0.07,0.18,0.97,-45.91,21.5)}39.326%{transform:matrix(0.84,-0.07,0.18,0.97,-45.97,21.56)}40.449%{transform:matrix(0.84,-0.07,0.18,0.97,-46.03,21.61)}41.573%{transform:matrix(0.84,-0.07,0.19,0.97,-46.1,21.67)}42.697%{transform:matrix(0.84,-0.07,0.19,0.97,-46.17,21.73)}43.82%{transform:matrix(0.84,-0.07,0.19,0.97,-46.26,21.78)}44.944%{transform:matrix(0.84,-0.07,0.19,0.97,-46.34,21.84)}46.067%{transform:matrix(0.84,-0.07,0.19,0.97,-46.44,21.9)}47.191%{transform:matrix(0.84,-0.07,0.19,0.97,-46.54,21.96)}48.315%{transform:matrix(0.84,-0.04,0.19,0.59,-46.64,22.01)}49.438%{transform:matrix(0.84,-0.02,0.19,0.22,-46.75,22.07)}50.562%{transform:matrix(0.84,-0.02,0.19,0.23,-46.86,22.12)}51.685%{transform:matrix(0.83,-0.04,0.19,0.54,-46.97,22.17)}52.809%{transform:matrix(0.83,-0.06,0.19,0.84,-47.07,22.22)}53.933%{transform:matrix(0.83,-0.07,0.19,0.97,-47.17,22.26)}55.056%{transform:matrix(0.83,-0.07,0.19,0.97,-47.26,22.31)}56.18%{transform:matrix(0.83,-0.07,0.19,0.97,-47.34,22.35)}57.303%{transform:matrix(0.83,-0.07,0.19,0.97,-47.41,22.4)}58.427%{transform:matrix(0.83,-0.07,0.19,0.97,-47.47,22.44)}59.551%{transform:matrix(0.83,-0.07,0.19,0.97,-47.51,22.48)}60.674%{transform:matrix(0.83,-0.07,0.19,0.97,-47.53,22.53)}61.798%{transform:matrix(0.83,-0.07,0.19,0.97,-47.54,22.57)}62.921%{transform:matrix(0.83,-0.07,0.19,0.97,-47.52,22.62)}64.045%{transform:matrix(0.83,-0.07,0.19,0.97,-47.49,22.67)}65.169%{transform:matrix(0.83,-0.07,0.19,0.97,-47.43,22.72)}66.292%{transform:matrix(0.83,-0.07,0.19,0.97,-47.35,22.78)}67.416%{transform:matrix(0.83,-0.07,0.19,0.97,-47.25,22.84)}68.539%{transform:matrix(0.83,-0.07,0.19,0.97,-47.13,22.91)}69.663%{transform:matrix(0.83,-0.07,0.19,0.96,-46.99,22.99)}70.787%{transform:matrix(0.83,-0.07,0.19,0.96,-46.84,23.07)}71.91%{transform:matrix(0.83,-0.07,0.19,0.96,-46.67,23.15)}73.034%{transform:matrix(0.84,-0.07,0.19,0.96,-46.48,23.25)}74.157%{transform:matrix(0.84,-0.07,0.19,0.96,-46.28,23.34)}75.281%{transform:matrix(0.84,-0.07,0.19,0.96,-46.07,23.45)}76.404%{transform:matrix(0.84,-0.07,0.19,0.96,-45.86,23.56)}77.528%{transform:matrix(0.84,-0.07,0.19,0.96,-45.64,23.68)}78.652%{transform:matrix(0.84,-0.07,0.19,0.96,-45.43,23.8)}79.775%{transform:matrix(0.84,-0.06,0.19,0.96,-45.21,23.93)}80.899%{transform:matrix(0.84,-0.06,0.19,0.96,-45,24.06)}82.022%{transform:matrix(0.85,-0.06,0.2,0.96,-44.82,24.2)}83.146%{transform:matrix(0.85,-0.06,0.2,0.96,-44.65,24.35)}84.27%{transform:matrix(0.85,-0.06,0.2,0.96,-44.49,24.49)}85.393%{transform:matrix(0.85,-0.06,0.2,0.96,-44.35,24.63)}86.517%{transform:matrix(0.85,-0.06,0.2,0.96,-44.22,24.77)}87.64%{transform:matrix(0.85,-0.06,0.2,0.96,-44.11,24.91)}88.764%{transform:matrix(0.85,-0.06,0.2,0.96,-44.02,25.04)}89.888%{transform:matrix(0.85,-0.06,0.2,0.96,-43.96,25.16)}91.011%{transform:matrix(0.85,-0.06,0.2,0.96,-43.91,25.27)}92.135%{transform:matrix(0.85,-0.06,0.2,0.96,-43.88,25.38)}93.258%{transform:matrix(0.85,-0.06,0.2,0.96,-43.87,25.47)}94.382%{transform:matrix(0.85,-0.06,0.2,0.96,-43.88,25.54)}95.506%{transform:matrix(0.85,-0.06,0.2,0.96,-43.9,25.61)}96.629%{transform:matrix(0.85,-0.06,0.2,0.96,-43.95,25.66)}97.753%{transform:matrix(0.85,-0.06,0.2,0.96,-44.01,25.69)}98.876%{transform:matrix(0.85,-0.06,0.2,0.96,-44.08,25.71)}100%{transform:matrix(0.85,-0.06,0.2,0.96,-44.16,25.71)}}@keyframes oeil1{0%{transform:matrix(0.98,-0.17,0.17,0.97,-1.02,15.59)}1.124%{transform:matrix(0.98,-0.17,0.17,0.97,-1.04,15.64)}2.247%{transform:matrix(0.98,-0.17,0.17,0.97,-1.07,15.68)}3.371%{transform:matrix(0.98,-0.17,0.17,0.97,-1.1,15.72)}4.494%{transform:matrix(0.98,-0.17,0.17,0.97,-1.15,15.76)}5.618%{transform:matrix(0.98,-0.17,0.18,0.97,-1.2,15.8)}6.742%{transform:matrix(0.98,-0.17,0.18,0.97,-1.26,15.83)}7.865%{transform:matrix(0.98,-0.17,0.18,0.97,-1.32,15.85)}8.989%{transform:matrix(0.98,-0.17,0.18,0.97,-1.4,15.88)}10.112%{transform:matrix(0.98,-0.17,0.18,0.97,-1.48,15.9)}11.236%{transform:matrix(0.98,-0.17,0.18,0.97,-1.57,15.93)}12.36%{transform:matrix(0.98,-0.17,0.18,0.97,-1.67,15.95)}13.483%{transform:matrix(0.98,-0.17,0.18,0.97,-1.77,15.96)}14.607%{transform:matrix(0.98,-0.17,0.18,0.97,-1.87,15.98)}15.73%{transform:matrix(0.98,-0.17,0.18,0.97,-1.97,15.99)}16.854%{transform:matrix(0.98,-0.17,0.18,0.97,-2.07,16)}17.978%{transform:matrix(0.98,-0.17,0.18,0.97,-2.17,16.01)}19.101%{transform:matrix(0.98,-0.17,0.18,0.97,-2.27,16.02)}20.225%{transform:matrix(0.98,-0.17,0.18,0.97,-2.37,16.02)}21.348%{transform:matrix(0.98,-0.17,0.18,0.97,-2.46,16.03)}22.472%{transform:matrix(0.98,-0.17,0.18,0.97,-2.54,16.04)}23.596%{transform:matrix(0.98,-0.17,0.18,0.97,-2.62,16.05)}24.719%{transform:matrix(0.98,-0.17,0.18,0.97,-2.69,16.06)}25.843%{transform:matrix(0.98,-0.17,0.18,0.97,-2.76,16.07)}26.966%{transform:matrix(0.98,-0.17,0.18,0.97,-2.82,16.08)}28.09%{transform:matrix(0.98,-0.17,0.18,0.97,-2.88,16.1)}29.213%{transform:matrix(0.98,-0.17,0.18,0.97,-2.93,16.12)}30.337%{transform:matrix(0.98,-0.17,0.18,0.97,-2.98,16.15)}31.461%{transform:matrix(0.98,-0.17,0.18,0.97,-3.03,16.18)}32.584%{transform:matrix(0.98,-0.17,0.18,0.97,-3.08,16.21)}33.708%{transform:matrix(0.98,-0.17,0.18,0.97,-3.12,16.25)}34.831%{transform:matrix(0.98,-0.17,0.18,0.97,-3.17,16.3)}35.955%{transform:matrix(0.98,-0.17,0.18,0.97,-3.23,16.35)}37.079%{transform:matrix(0.98,-0.17,0.18,0.97,-3.29,16.4)}38.202%{transform:matrix(0.98,-0.17,0.18,0.97,-3.36,16.46)}39.326%{transform:matrix(0.98,-0.17,0.18,0.97,-3.43,16.53)}40.449%{transform:matrix(0.98,-0.17,0.18,0.97,-3.52,16.6)}41.573%{transform:matrix(0.98,-0.17,0.19,0.97,-3.61,16.68)}42.697%{transform:matrix(0.98,-0.17,0.19,0.97,-3.72,16.76)}43.82%{transform:matrix(0.98,-0.17,0.19,0.97,-3.83,16.84)}44.944%{transform:matrix(0.98,-0.17,0.19,0.97,-3.95,16.93)}46.067%{transform:matrix(0.98,-0.17,0.19,0.97,-4.09,17.02)}47.191%{transform:matrix(0.98,-0.17,0.19,0.97,-4.22,17.11)}48.315%{transform:matrix(0.98,-0.11,0.19,0.59,-4.37,17.21)}49.438%{transform:matrix(0.98,-0.04,0.19,0.22,-4.52,17.3)}50.562%{transform:matrix(0.98,-0.04,0.19,0.23,-4.67,17.39)}51.685%{transform:matrix(0.98,-0.1,0.19,0.54,-4.82,17.47)}52.809%{transform:matrix(0.98,-0.15,0.19,0.84,-4.97,17.56)}53.933%{transform:matrix(0.98,-0.18,0.19,0.97,-5.11,17.64)}55.056%{transform:matrix(0.98,-0.18,0.19,0.97,-5.24,17.72)}56.18%{transform:matrix(0.98,-0.18,0.19,0.97,-5.35,17.79)}57.303%{transform:matrix(0.98,-0.18,0.19,0.97,-5.45,17.85)}58.427%{transform:matrix(0.98,-0.18,0.19,0.97,-5.54,17.92)}59.551%{transform:matrix(0.98,-0.18,0.19,0.97,-5.6,17.97)}60.674%{transform:matrix(0.98,-0.18,0.19,0.97,-5.64,18.02)}61.798%{transform:matrix(0.98,-0.18,0.19,0.97,-5.65,18.07)}62.921%{transform:matrix(0.98,-0.18,0.19,0.97,-5.63,18.11)}64.045%{transform:matrix(0.98,-0.18,0.19,0.97,-5.59,18.14)}65.169%{transform:matrix(0.98,-0.18,0.19,0.97,-5.52,18.17)}66.292%{transform:matrix(0.98,-0.18,0.19,0.97,-5.41,18.2)}67.416%{transform:matrix(0.98,-0.18,0.19,0.97,-5.29,18.22)}68.539%{transform:matrix(0.98,-0.18,0.19,0.97,-5.13,18.24)}69.663%{transform:matrix(0.98,-0.18,0.19,0.96,-4.95,18.26)}70.787%{transform:matrix(0.98,-0.18,0.19,0.96,-4.75,18.28)}71.91%{transform:matrix(0.98,-0.18,0.19,0.96,-4.52,18.3)}73.034%{transform:matrix(0.98,-0.18,0.19,0.96,-4.28,18.32)}74.157%{transform:matrix(0.98,-0.18,0.19,0.96,-4.04,18.35)}75.281%{transform:matrix(0.98,-0.18,0.19,0.96,-3.78,18.41)}76.404%{transform:matrix(0.98,-0.18,0.19,0.96,-3.53,18.46)}77.528%{transform:matrix(0.98,-0.18,0.19,0.96,-3.27,18.52)}78.652%{transform:matrix(0.98,-0.18,0.19,0.96,-3.01,18.59)}79.775%{transform:matrix(0.98,-0.18,0.19,0.96,-2.76,18.66)}80.899%{transform:matrix(0.98,-0.18,0.19,0.96,-2.51,18.73)}82.022%{transform:matrix(0.98,-0.18,0.2,0.96,-2.28,18.81)}83.146%{transform:matrix(0.98,-0.18,0.2,0.96,-2.07,18.91)}84.27%{transform:matrix(0.98,-0.18,0.2,0.96,-1.88,19.02)}85.393%{transform:matrix(0.98,-0.18,0.2,0.96,-1.71,19.13)}86.517%{transform:matrix(0.98,-0.18,0.2,0.96,-1.55,19.24)}87.64%{transform:matrix(0.98,-0.19,0.2,0.96,-1.42,19.34)}88.764%{transform:matrix(0.98,-0.19,0.2,0.96,-1.32,19.45)}89.888%{transform:matrix(0.98,-0.19,0.2,0.96,-1.24,19.54)}91.011%{transform:matrix(0.98,-0.19,0.2,0.96,-1.18,19.64)}92.135%{transform:matrix(0.98,-0.19,0.2,0.96,-1.15,19.72)}93.258%{transform:matrix(0.98,-0.19,0.2,0.96,-1.14,19.8)}94.382%{transform:matrix(0.98,-0.19,0.2,0.96,-1.15,19.87)}95.506%{transform:matrix(0.98,-0.19,0.2,0.96,-1.19,19.92)}96.629%{transform:matrix(0.98,-0.19,0.2,0.96,-1.24,19.97)}97.753%{transform:matrix(0.98,-0.19,0.2,0.96,-1.31,20)}98.876%{transform:matrix(0.98,-0.19,0.2,0.96,-1.4,20.01)}100%{transform:matrix(0.98,-0.19,0.2,0.96,-1.51,20.01)}}</style></svg>